<svg xmlns="http://www.w3.org/2000/svg" version="1.1" xmlns:xlink="http://www.w3.org/1999/xlink" xmlns:svgjs="http://svgjs.dev/svgjs" width="1000" height="1000" viewBox="0 0 1000 1000"><rect width="1000" height="1000" fill="#000000"></rect><g transform="matrix(0.7,0,0,0.7,149.57575757575756,282.1265673873039)"><svg viewBox="0 0 396 247" data-background-color="#ffffff" preserveAspectRatio="xMidYMid meet" height="623" width="1000" xmlns="http://www.w3.org/2000/svg" xmlns:xlink="http://www.w3.org/1999/xlink"><defs></defs><g id="tight-bounds" transform="matrix(1,0,0,1,0.2400000000000091,-0.10000000000002274)"><svg viewBox="0 0 395.52 247.2" height="247.2" width="395.52"><g><svg viewBox="0 0 395.52 247.2" height="247.2" width="395.52"><rect width="395.52" height="247.2" x="0" y="0" opacity="1" fill="#ffffff" data-fill-palette-color="background"></rect><g transform="matrix(1,0,0,1,44.18659713168188,0)"><svg viewBox="0 0 307.1468057366362 247.2" height="247.2" width="307.1468057366362"><g><svg viewBox="0 0 307.1468057366362 247.2" height="247.2" width="307.1468057366362"><g><svg viewBox="0 0 307.1468057366362 247.2" height="247.2" width="307.1468057366362"><g><svg viewBox="0 0 307.1468057366362 247.2" height="247.2" width="307.1468057366362"><g><svg viewBox="0 0 307.1468057366362 247.2" height="247.2" width="307.1468057366362"><g><svg viewBox="0 0 307.1468057366362 247.2" height="247.2" width="307.1468057366362"><g transform="matrix(1,0,0,1,0,0)"><svg width="307.1468057366362" viewBox="2.75 -38.04999923706055 47.650001525878906 38.349998474121094" height="247.2" data-palette-color="#8dbdff"><path d="M16.4-17.5L16.4-17.5Q16.4-19.7 14.38-19.7 12.35-19.7 11.15-17.1L11.15-17.1Q16.55-12.85 16.55-7.55L16.55-7.55Q16.55-3.7 14.4-1.7 12.25 0.3 9 0.3 5.75 0.3 4.25-1.73 2.75-3.75 2.75-6.85L2.75-6.85Q2.75-7.8 2.8-8.25L2.8-8.25 4.55-23.5Q6.35-24.05 8.2-24.05L8.2-24.05Q11.25-24.05 11.25-21.8L11.25-21.8 11.25-21.7Q13.25-24.05 16.35-24.05L16.35-24.05Q18.6-24.05 19.85-23.03 21.1-22 21.1-20.3 21.1-18.6 19.83-17.53 18.55-16.45 16.5-16.45L16.5-16.45Q16.4-16.45 16.3-16.45L16.3-16.45Q16.4-17 16.4-17.5ZM13.3-7.8Q13.3-10.7 10.3-13.6L10.3-13.6Q9.4-6.4 9.4-6.35L9.4-6.35Q9.4-4.25 11.1-4.25L11.1-4.25Q13.3-4.25 13.3-7.8L13.3-7.8ZM44.9-18L44.9-18Q44.9-12.8 38.7-10.05L38.7-10.05Q38.85-9.15 39.15-7.9L39.15-7.9Q40.05-4.2 42.15-4.1L42.15-4.1Q42.3-4.1 42.45-4.1L42.45-4.1Q46.45-4.1 48.4-11.15L48.4-11.15Q49.45-10.2 50.4-8.3L50.4-8.3Q49.7-5.6 48.42-3.75 47.15-1.9 45.65-1.1L45.65-1.1Q43 0.3 40.65 0.3L40.65 0.3Q35.15 0.3 32.95-5.85L32.95-5.85Q32.1-8.3 31.8-10.85L31.8-10.85Q34.65-11.55 36.3-13.18 37.95-14.8 37.95-16.65L37.95-16.65Q37.95-19.85 34.75-19.85L34.75-19.85Q33-19.85 31.75-18.53 30.5-17.2 30.1-15.35L30.1-15.35Q29.8-12.8 29.12-7.33 28.45-1.85 28.25 0L28.25 0 21.6 0Q25.2-30.65 25.95-37.65L25.95-37.65Q27-38.05 28.8-38.05L28.8-38.05Q32.7-38.05 32.7-35.75L32.7-35.75 32.7-35.45Q31.7-26.4 30.85-21.6L30.85-21.6Q33.6-24.15 37.75-24.15L37.75-24.15Q40.85-24.15 42.87-22.55 44.9-20.95 44.9-18Z" opacity="1" transform="matrix(1,0,0,1,0,0)" fill="#ffffff" class="undefined-text-0" data-fill-palette-color="primary" id="text-0"></path></svg></g></svg></g></svg></g></svg></g></svg></g></svg></g></svg></g></svg></g></svg><rect width="395.52" height="247.2" fill="none" stroke="none" visibility="hidden"></rect></g></svg></g></svg>